<?xml version="1.0" encoding="UTF-8" standalone="no"?>
<!-- Created with Inkscape (http://www.inkscape.org/) -->
<svg id="svg3221" xmlns:rdf="http://www.w3.org/1999/02/22-rdf-syntax-ns#" xmlns="http://www.w3.org/2000/svg" xml:space="preserve" viewBox="0 0 661.25 225" version="1.1" xmlns:cc="http://creativecommons.org/ns#" xmlns:dc="http://purl.org/dc/elements/1.1/"><metadata id="metadata3227"><rdf:RDF><cc:Work rdf:about=""><dc:format>image/svg+xml</dc:format><dc:type rdf:resource="http://purl.org/dc/dcmitype/StillImage"/><dc:title/></cc:Work></rdf:RDF></metadata><g id="g3229" transform="matrix(1.25,0,0,-1.25,0,225)"><g id="g3231" transform="scale(0.1,0.1)"><g id="g3233" transform="scale(0.999648,1.00035)"><path id="path3235" stroke-linejoin="round" d="m329.49,525.03,411.51,939.95" stroke="#010101" stroke-linecap="butt" stroke-miterlimit="10" stroke-dasharray="none" stroke-width="7.09275" fill="none"/></g><g id="g3237" transform="scale(0.999648,1.00035)"><path id="path3239" stroke-linejoin="round" d="M2211.6,1336.7,1789.4,1138.3" stroke="#010101" stroke-linecap="butt" stroke-miterlimit="10" stroke-dasharray="none" stroke-width="7.09275" fill="none"/></g><g id="g3241" transform="scale(0.999648,1.00035)"><path id="path3243" stroke-linejoin="round" d="M1766.6,1103.7,308.77,496.37" stroke="#010101" stroke-linecap="butt" stroke-miterlimit="10" stroke-dasharray="none" stroke-width="7.09275" fill="none"/></g><g id="g3245" transform="scale(0.999648,1.00035)"><path id="path3247" stroke-linejoin="round" d="M3.4074,1318.2,645.36,1490.2" stroke="#010101" stroke-linecap="butt" stroke-miterlimit="10" stroke-dasharray="none" stroke-width="7.09275" fill="none"/></g><g id="g3249" transform="scale(0.999648,1.00035)"><path id="path3251" stroke-linejoin="round" d="M501.47,1787.4,603.64,1547.3" stroke="#010101" stroke-linecap="butt" stroke-miterlimit="10" stroke-dasharray="none" stroke-width="7.09275" fill="none"/></g><g id="g3253" transform="scale(0.999648,1.00035)"><path id="path3255" stroke-linejoin="round" d="m779.6,1473.5,444.14,259.39" stroke="#010101" stroke-linecap="butt" stroke-miterlimit="10" stroke-dasharray="none" stroke-width="7.09275" fill="none"/></g><g id="g3257" transform="scale(0.999648,1.00035)"><path id="path3259" stroke-linejoin="round" d="M1484.6,1732.9,1892.9,1147.4" stroke="#010101" stroke-linecap="butt" stroke-miterlimit="10" stroke-dasharray="none" stroke-width="7.09275" fill="none"/></g><g id="g3261" transform="scale(0.999648,1.00035)"><path id="path3263" stroke-linejoin="round" d="M735.04,1517.5,1785.4,1059.4" stroke="#010101" stroke-linecap="butt" stroke-miterlimit="10" stroke-dasharray="none" stroke-width="7.09275" fill="none"/></g><g id="g3265" transform="scale(0.999648,1.00035)"><path id="path3267" stroke-linejoin="round" d="M409.81,111.54,225.05,428.82" stroke="#010101" stroke-linecap="butt" stroke-miterlimit="10" stroke-dasharray="none" stroke-width="7.09275" fill="none"/></g><g id="g3269" transform="scale(0.999648,1.00035)"><path id="path3271" stroke-linejoin="round" d="M47.962,257.69,259.68,448.12" stroke="#010101" stroke-linecap="butt" stroke-miterlimit="10" stroke-dasharray="none" stroke-width="7.09275" fill="none"/></g><path id="path3273" fill-rule="evenodd" fill="#698c78" d="m229.23,382.41-120.57,0,0,214.34,240.86,0,0-214.34-120.29,0"/><g id="g3275" transform="scale(0.999648,1.00035)"><path id="path3277" stroke-linejoin="round" d="m229.03,382.56-120.61,0,0,213.98,240.94,0,0-213.98-120.33,0z" stroke="#010101" stroke-linecap="butt" stroke-miterlimit="10" stroke-dasharray="none" stroke-width="7.09275" fill="none"/></g><path id="path3279" fill-rule="evenodd" fill="#397885" d="m1853.4,967.82-120.28,0,0,214.63,240.29,0,0-214.63-120.01,0"/><g id="g3281" transform="scale(0.999648,1.00035)"><path id="path3283" stroke-linejoin="round" d="m1853.8,967.76-120.33,0,0,214.27,240.38,0,0-214.27-120.05,0z" stroke="#010101" stroke-linecap="butt" stroke-miterlimit="10" stroke-dasharray="none" stroke-width="7.09275" fill="none"/></g><path id="path3285" fill-rule="evenodd" fill="#f27001" d="m1324.6,1712.2-159.15,0,0,83.75,318.03,0,0-83.75-158.88,0"/><g id="g3287" transform="scale(0.999648,1.00035)"><path id="path3289" stroke-linejoin="round" d="m1325.1,1711.6-159.21,0,0,83.72,317.86,0,0-83.72-158.65,0z" stroke="#010101" stroke-linecap="butt" stroke-miterlimit="10" stroke-dasharray="none" stroke-width="7.09275" fill="none"/></g><path id="path3291" fill-rule="evenodd" fill="#c79140" d="m695.35,1412.1-115.18,0,0,175.17,230.36,0,0-175.17-115.18,0"/><g id="g3293" transform="scale(0.999648,1.00035)"><path id="path3295" stroke-linejoin="round" d="m695.59,1411.9-115.22,0,0,175.11,230.44,0,0-175.11-115.22,0z" stroke="#010101" stroke-linecap="butt" stroke-miterlimit="10" stroke-dasharray="none" stroke-width="7.09275" fill="none"/></g><path id="path3297" fill-rule="evenodd" fill="#91a6b0" d="m1007.1,173.75-18.163-8.801-19.008-7.664-19.574-6.531-20.426-5.109-21.563-4.258-22.129-3.125-22.976-1.703-23.832-0.567-20.711,0.567-20.426,1.422-20.144,2.554-19.29,3.407-19.293,4.542-18.722,5.11-18.442,6.531-18.156,7.379-20.426,10.223-9.363,5.394-8.512,5.676-7.941,5.961-7.379,5.68-6.523,6.531-5.676,6.812-5.106,6.813-4.539,7.098-3.687,7.382-3.121,7.379-2.555,7.949-1.699,8.235-0.852,7.949-0.285,8.801,0.285,8.515,0.852,8.235,1.699,8.234,2.555,7.379,3.121,7.668,3.687,7.664,4.539,6.813,5.106,6.816,5.676,6.813,6.523,6.527,7.379,5.965,7.941,5.961,8.512,5.679,9.363,5.391,20.426,10.223,18.156,7.379,18.442,6.246,18.722,5.679,19.293,4.543,19.29,3.407,20.144,2.554,20.426,1.418,20.711,0.571,23.261-0.571,22.696-1.703,21.562-3.121,21.563-4.258,20.711-5.109,19.574-6.531,19.293-7.665,18.441-8.8-51.351-28.11-12.199,6.532-13.051,5.961-13.617,5.113-13.903,3.972-15.035,3.122-15.32,2.273-16.172,1.137-16.453,0.566-14.184-0.285-13.902-1.418-13.617-1.988-13.051-2.27-13.051-3.691-12.766-4.258-12.484-5.109-12.199-5.965-13.332-7.379-5.957-4.262-5.391-4.258-5.39-4.258-4.258-4.257-4.254-4.828-3.688-4.825-3.121-4.828-3.121-5.109-2.269-5.11-2.27-5.394-1.418-5.68-1.137-5.676-0.566-5.679-0.285-5.961,0.285-6.246,0.566-5.961,1.137-5.68,1.418-5.676,1.984-5.394,2.555-5.395,2.555-4.828,3.687-5.109,3.403-4.824,4.257-4.829,4.254-4.257,5.106-4.258,5.676-4.258,5.957-3.977,6.242-3.691,6.808-3.687,11.633-5.114,12.199-4.824,12.481-3.977,13.051-3.406,13.617-2.554,13.902-1.989,14.184-0.851,14.754-0.282,15.886,0.282,15.321,1.422,15.32,2.554,14.469,3.406,14.183,4.258,13.903,5.395,13.332,5.68,13.336,7.378,51.921-30.945zm492.78,101.64-0.28-8.516-0.85-7.949-1.7-8.234-1.99-7.664-2.84-7.383-3.4-7.664-3.69-7.098-4.82-6.812-5.39-6.532-5.68-6.812-6.81-5.965-7.09-5.676-7.38-5.961-8.51-5.679-18.72-10.219-16.74-7.949-17.59-6.817-17.59-5.676-18.15-4.828-18.73-3.691-19.29-2.836-19.86-1.422-20.14-0.566-20.43,0.566-19.57,1.422-19.29,2.836-18.73,3.691-18.16,4.828-17.59,5.676-17.3,6.817-16.74,7.949-18.44,10.219-8.23,5.679-7.94,5.961-7.09,5.676-6.24,5.965-5.96,6.812-5.39,6.532-4.54,6.812-3.97,7.098-3.12,7.664-2.84,7.383-2.27,7.664-1.42,8.234-1.13,7.949-0.29,8.516,0.29,8.515,1.13,7.95,1.42,7.949,2.27,7.668,2.84,7.664,3.12,7.383,3.97,6.812,4.54,6.813,5.39,6.816,5.96,6.527,6.24,5.961,7.09,5.965,7.94,5.961,8.23,5.395,18.44,10.504,16.74,7.949,17.3,6.527,17.59,5.965,18.16,4.824,18.73,3.692,19.29,2.554,19.57,1.703,20.43,0.286,20.14-0.286,19.57-1.703,19.01-2.554,18.73-3.692,18.44-4.824,17.59-5.965,17.3-6.527,16.74-7.949,18.73-10.504,8.51-5.395,7.66-5.961,7.09-5.965,6.52-5.961,5.96-6.527,5.39-6.816,4.54-6.813,4.26-6.812,3.4-7.383,2.84-7.664,1.99-7.668,1.7-7.949,0.85-7.95,0.28-8.515zm-75.46,0-0.28,6.246-0.57,5.68-0.86,5.961-1.41,5.675-1.7,5.395-2.28,5.109-2.55,5.395-2.55,4.828-3.69,5.109-3.69,4.258-4.25,4.543-4.26,4.543-5.1,4.258-5.39,3.976-5.4,3.973-6.24,3.406-11.35,5.965-11.63,5.391-11.63,4.543-12.48,3.125-12.77,2.84-13.61,1.984-13.91,1.422-14.18,0.281-14.19-0.281-13.33-1.422-13.34-1.984-12.76-2.84-12.2-3.407-12.2-4.542-11.63-5.395-11.07-6.246-11.91-7.383-5.39-4.258-4.82-4.258-4.83-4.257-3.97-4.543-3.69-4.543-3.4-4.825-3.12-5.113-2.56-5.109-2.27-5.11-1.7-5.394-1.42-5.68-0.84-5.676-0.58-5.679-0.28-5.961,0.28-5.961,0.58-5.961,0.84-5.68,1.42-5.679,1.7-5.391,2.27-5.395,2.56-4.828,3.12-5.109,3.4-4.828,3.69-4.539,3.97-4.262,4.83-4.258,4.82-4.258,5.39-3.972,5.67-3.977,6.24-3.691,11.07-5.395,11.35-5.394,12.19-4.539,12.2-3.411,12.77-2.835,13.34-1.704,13.61-1.421,14.19-0.286,13.9,0.286,13.9,1.421,13.34,1.704,13.04,2.835,12.49,3.411,11.91,4.539,11.63,5.394,11.35,5.395,6.24,3.691,5.4,3.977,5.39,3.972,5.1,4.258,4.26,4.258,4.25,4.262,3.69,4.539,3.69,4.828,2.55,5.109,2.55,4.828,2.28,5.395,1.7,5.391,1.41,5.679,0.86,5.68,0.57,5.961,0.28,5.961zm464.7-139.96-100.71,0,0,23.562,13.33,20.157,0,152.45-0.57,3.41-0.57,3.406-0.85,3.121-1.13,3.125-1.42,2.836-1.7,2.84-1.7,2.555-2.27,2.554-2.56,2.555-2.83,2.559-2.56,2.554-3.12,2.27-3.4,1.988-7.95,4.258-6.52,2.84-6.81,2.555-7.09,1.988-7.38,1.984-7.66,1.422-7.94,0.852-7.66,0.566-8.51,0.285-7.66-0.285-7.66-0.852-7.1-1.136-7.09-1.985-6.81-2.273-6.81-3.121-6.52-3.125-6.24-3.973-6.24-4.828-2.84-2.269-2.56-2.555-2.55-2.84-1.98-2.555-2.27-2.554-1.71-2.84-1.41-2.84-1.7-3.121-1.14-3.125-0.85-3.121-0.85-3.125-0.57-3.121-0.29-3.407,0-145.92,11.92-20.157,0-23.562-99.86,0,0,23.562,12.48,20.157,0,193.05-12.48,20.161,0,22.711,87.94,0,0-23.563,11.07,6.242,11.35,5.68,12.2,4.828,13.05,3.973,13.33,2.84,14.19,1.988,14.47,1.133,15.6,0.57,13.05-0.285,13.05-1.137,12.2-1.418,12.2-2.555,11.91-3.125,11.35-3.691,11.07-4.539,10.49-5.395,11.92-6.531,5.1-3.691,4.83-3.973,4.82-3.976,3.97-3.973,3.69-3.977,3.12-4.543,2.84-4.539,2.83-4.543,1.99-4.828,1.7-4.824,1.42-5.113,1.14-5.391,0.28-5.394,0.28-5.395,0-146.78,11.92-20.157,0-23.562zm388.67,0-100.15,0,0,23.562,13.34,20.157,0,152.45-0.57,3.41-0.57,3.406-1.13,3.121-0.86,3.125-1.41,2.836-1.71,2.84-1.98,2.555-1.99,2.554-2.55,2.555-2.84,2.559-2.84,2.554-3.12,2.27-3.4,1.988-7.66,4.258-6.53,2.84-7.09,2.555-7.09,1.988-7.09,1.984-7.95,1.422-7.66,0.852-7.66,0.566-8.51,0.285-7.94-0.285-7.38-0.852-7.09-1.136-7.09-1.985-7.1-2.273-6.8-3.121-6.53-3.125-6.24-3.973-6.24-4.828-2.84-2.269-2.27-2.555-2.55-2.84-2.27-2.555-2.27-2.554-1.42-2.84-1.7-2.84-1.42-3.121-1.13-3.125-1.14-3.121-0.57-3.125-0.56-3.121-0.29-3.407,0-145.92,11.92-20.157,0-23.562-99.87,0,0,23.562,12.49,20.157,0,193.05-12.49,20.161,0,22.711,87.95,0,0-23.563,10.78,6.242,11.63,5.68,12.2,4.828,13.05,3.973,13.34,2.84,13.9,1.988,14.75,1.133,15.61,0.57,13.04-0.285,12.77-1.137,12.48-1.418,12.2-2.555,11.92-3.125,11.06-3.691,11.35-4.539,10.5-5.395,11.91-6.531,4.83-3.691,5.1-3.973,4.54-3.976,4.26-3.973,3.69-3.977,3.12-4.543,2.83-4.539,2.84-4.543,1.7-4.828,1.99-4.824,1.13-5.113,1.42-5.391,0.29-5.394,0.28-5.395,0-146.78,11.35-20.157,0-23.562zm445.4,140.53-338.73,0,0-0.566,0.28-8.801,1.42-8.516,1.7-8.234,2.56-7.949,3.4-7.383,3.97-7.098,4.83-7.097,5.67-6.242,5.96-6.247,7.09-5.964,7.66-5.395,8.51-4.824,9.08-4.828,9.93-4.539,10.49-4.262,11.64-3.688,8.22-2.558,8.23-1.985,7.95-1.988,7.94-1.418,7.38-1.422,7.66-0.851,6.81-0.285,6.8-0.282,6.81,0.282,7.38,0.57,7.66,0.851,7.37,1.137,7.95,1.418,7.94,1.988,8.51,2.27,8.23,2.555,8.51,2.554,7.94,2.84,7.38,3.125,7.09,3.121,6.53,3.407,6.24,3.125,5.67,3.406,5.39,3.972,43.98-30.375-15.61-9.371-17.02-7.949-17.87-6.527-19.3-5.395-20.99-4.543-21.84-2.84-23.27-1.988-24.68-0.566-21.84,0.566-20.71,1.422-20.15,2.555-19,3.691-17.87,4.543-17.59,5.676-16.18,6.246-15.6,7.664-9.08,5.113-8.23,5.395-7.94,5.109-7.09,5.961-6.53,6.246-5.96,5.961-5.67,6.531-4.82,7.098-4.54,7.379-3.69,7.383-3.12,7.664-2.55,7.949-1.99,8.52-1.42,8.8-0.85,8.516-0.28,9.367,0.28,8.52,0.57,7.949,1.13,7.949,1.99,7.379,2.55,7.668,2.84,7.379,3.41,6.816,3.68,6.813,4.26,6.812,5.1,6.532,5.68,5.961,5.96,5.961,6.52,5.964,6.81,5.391,7.38,5.395,8.22,5.394,14.76,8.801,15.6,7.383,16.17,6.246,17.02,5.394,17.31,3.973,17.87,2.84,18.73,1.703,19,0.566,19.01-0.566,18.16-1.703,17.87-2.84,17.59-3.973,16.46-5.394,16.45-6.246,15.6-7.383,15.32-8.801,15.61-10.789,7.09-5.391,6.52-5.964,5.96-6.247,5.68-5.961,4.82-6.527,4.25-6.816,4.26-6.813,3.41-7.097,2.83-7.098,2.56-7.664,1.41-7.383,1.42-7.949,0.85-7.949,0.28-8.235zm-71.77,30.379-2.55,6.246-3.12,5.961-3.41,6.246-4.25,5.395-4.54,5.679-5.39,5.676-5.96,5.395-6.53,4.828-9.92,7.098-11.07,6.242-10.78,5.113-11.92,3.973-12.48,3.406-12.77,2.273-13.04,1.418-13.91,0.567-14.18-0.567-13.34-1.418-13.05-2.554-12.2-3.41-11.91-4.258-11.07-5.395-10.77-6.527-9.93-7.383-5.96-4.824-5.39-5.395-4.82-5.394-4.54-5.68-3.69-5.394-3.97-5.676-2.56-5.961-2.55-5.68,261.57,0zm521.16-132.58-17.88-8.801-19.01-7.664-19.57-6.531-20.71-5.109-21.56-4.258-22.13-3.125-22.98-1.703-23.55-0.567-20.99,0.567-20.14,1.422-20.43,2.554-19.29,3.407-19.29,4.542-18.73,5.11-18.44,6.531-17.87,7.379-20.71,10.223-9.36,5.394-8.23,5.676-8.23,5.961-7.09,5.68-6.52,6.531-5.68,6.812-5.39,6.813-4.25,7.098-3.69,7.382-3.12,7.379-2.56,7.949-1.98,8.235-0.85,7.949-0.29,8.801,0.29,8.515,0.85,8.235,1.98,8.234,2.56,7.379,3.12,7.668,3.69,7.664,4.25,6.813,5.39,6.816,5.68,6.813,6.52,6.527,7.09,5.965,8.23,5.961,8.23,5.679,9.36,5.391,20.71,10.223,17.87,7.379,18.44,6.246,18.73,5.679,19.29,4.543,19.29,3.407,20.43,2.554,20.14,1.418,20.99,0.571,23.27-0.571,22.41-1.703,21.84-3.121,21.57-4.258,20.42-5.109,19.58-6.531,19.29-7.665,18.44-8.8-51.35-28.11-12.2,6.532-13.05,5.961-13.33,5.113-14.19,3.972-14.75,3.122-15.32,2.273-16.17,1.137-16.46,0.566-14.46-0.285-13.62-1.418-13.9-1.988-13.05-2.27-13.06-3.691-12.76-4.258-12.48-5.109-12.2-5.965-13.34-7.379-5.95-4.262-5.11-4.258-5.39-4.258-4.26-4.257-4.54-4.828-3.68-4.825-3.13-4.828-3.12-5.109-2.27-5.11-1.98-5.394-1.7-5.68-0.85-5.676-0.57-5.679-0.29-5.961,0.29-6.246,0.57-5.961,0.85-5.68,1.7-5.676,1.7-5.394,2.55-5.395,2.84-4.828,3.41-5.109,3.4-4.824,4.54-4.829,4.26-4.257,5.1-4.258,5.39-4.258,5.96-3.977,6.24-3.691,6.81-3.687,11.92-5.114,12.2-4.824,12.48-3.977,13.05-3.406,13.33-2.554,14.19-1.989,14.18-0.851,14.75-0.282,15.89,0.282,15.04,1.422,15.32,2.554,14.75,3.406,13.9,4.258,14.19,5.395,13.33,5.68,13.05,7.378,51.92-30.945zm215.61,218.32-89.37,0,0-213.21,12.49-20.156,0-23.562-99.58,0,0,23.562,11.06,20.156,0,282.77-9.93,20.442,0,22.429,98.45,0,0-22.429-12.49-20.442,0-46.844,89.37,0,0-22.711"/><g id="g3299" transform="scale(0.999648,1.00035)"><path id="path3301" stroke-linejoin="miter" d="m1007.5,173.68-18.165-8.798-19.014-7.661-19.581-6.529-20.433-5.108-21.571-4.256-22.136-3.124-22.985-1.702-23.84-0.567-20.719,0.567-20.433,1.421-20.151,2.554-19.296,3.405-19.3,4.541-18.729,5.108-18.448,6.529-18.163,7.376-20.433,10.219-9.366,5.393-8.515,5.673-7.944,6.244-7.382,5.678-6.525,6.525-5.678,6.814-5.107,6.81-4.541,7.095-3.689,7.377-3.122,7.38-2.556,7.946-1.699,8.232-0.852,7.946-0.286,8.798,0.286,8.512,0.852,8.232,1.699,8.228,2.556,7.38,3.122,7.661,3.689,7.665,4.541,6.81,5.107,6.811,5.678,6.814,6.525,6.525,7.382,5.958,7.944,5.963,8.515,5.674,9.366,5.393,20.433,10.219,18.163,7.376,18.448,6.244,18.729,5.678,19.3,4.541,19.296,3.405,20.151,2.554,20.433,1.417,20.719,0.57,23.27-0.57,22.703-1.702,21.57-3.12,21.57-4.261,20.718-5.107,19.581-6.525,19.3-7.665,18.443-8.798-51.365-28.096-12.203,6.529-13.055,5.959-13.622,5.108-13.908,3.975-15.04,3.12-15.326,2.273-16.177,1.132-16.459,0.57-14.189-0.285-13.907-1.417-13.622-1.988-13.056-2.273-13.055-3.686-12.77-4.26-12.489-5.108-12.203-5.959-13.337-7.38-5.959-4.256-5.393-4.256-5.392-4.257-4.26-4.256-4.255-4.826-3.689-4.823-3.122-4.826-3.122-5.108-2.27-5.108-2.271-5.392-1.418-5.678-1.137-5.674-0.567-5.677-0.285-5.959,0.285-6.244,0.567-5.959,1.137-5.678,1.418-5.677,1.985-5.389,2.556-5.393,2.555-4.826,3.689-5.108,3.404-4.826,4.259-4.823,4.255-4.256,5.108-4.26,5.678-4.256,5.959-3.972,6.244-3.69,6.811-3.69,11.637-5.392,12.203-4.823,12.485-3.975,13.056-3.405,13.622-2.554,13.907-1.988,14.189-0.851,14.759-0.281,15.892,0.281,15.326,1.422,15.325,2.553,14.474,3.405,14.189,4.257,13.907,5.392,13.337,5.959,13.34,7.38,51.935-31.219z" stroke="#91a6b0" stroke-linecap="butt" stroke-miterlimit="199.131" stroke-dasharray="none" stroke-width="7.37646" fill="none"/></g><g id="g3303" transform="scale(0.999648,1.00035)"><path id="path3305" stroke-linejoin="miter" d="m1500.2,275.57-0.29-8.517-0.85-7.946-1.7-8.228-1.99-7.665-2.84-7.376-3.4-7.665-3.69-7.096-4.83-6.81-5.39-6.525-5.67-6.814-6.81-5.959-7.1-5.958-7.38-5.959-8.51-5.678-18.73-10.215-16.75-7.947-17.31-6.814-17.6-5.673-18.16-4.827-18.73-3.69-19.3-2.835-19.86-1.421-20.15-0.566-20.44,0.566-19.58,1.421-19.3,2.835-18.73,3.69-18.16,4.827-17.6,5.673-17.31,6.814-16.74,7.947-18.45,10.215-8.23,5.678-7.95,5.959-7.09,5.958-6.24,5.959-5.96,6.814-5.4,6.525-4.54,6.81-3.97,7.096-3.12,7.665-2.84,7.376-2.27,7.665-1.42,8.228-1.14,7.946-0.28,8.517,0.28,8.512,1.14,7.947,1.42,7.946,2.27,7.662,2.84,7.665,3.12,7.376,3.97,6.814,4.54,6.81,5.4,6.81,5.96,6.529,6.24,5.959,7.09,5.959,7.95,5.963,8.23,5.389,18.45,10.504,16.74,7.946,17.31,6.525,17.6,5.959,18.16,4.826,18.73,3.691,19.3,2.553,19.58,1.703,20.44,0.285,20.15-0.285,19.58-1.703,19.01-2.553,18.73-3.691,18.45-4.826,17.6-5.959,17.02-6.525,16.75-7.946,18.73-10.504,8.51-5.389,7.67-5.963,7.09-5.959,6.53-5.959,5.96-6.529,5.39-6.81,4.54-6.81,4.26-6.814,3.4-7.376,2.84-7.665,1.99-7.662,1.7-7.946,0.85-7.947,0.29-8.512z" stroke="#91a6b0" stroke-linecap="butt" stroke-miterlimit="199.131" stroke-dasharray="none" stroke-width="7.37646" fill="none"/></g><g id="g3307" transform="scale(0.999648,1.00035)"><path id="path3309" stroke-linejoin="miter" d="m1424.7,275.57-0.29,6.244-0.56,5.674-0.86,5.958-1.41,5.678-1.71,5.393-2.27,5.107-2.55,5.393-2.56,4.826-3.69,5.108-3.69,4.256-4.25,4.542-4.26,4.541-4.82,4.256-5.4,3.972-5.39,3.975-6.24,3.405-11.36,5.959-11.63,5.392-11.63,4.542-12.49,3.12-12.77,2.838-13.63,1.988-13.9,1.417-14.19,0.286-14.19-0.286-13.34-1.417-13.34-1.988-12.77-2.838-12.21-3.405-12.2-4.542-11.64-5.389-11.06-6.243-11.92-7.381-5.39-4.256-4.83-4.256-4.82-4.261-3.97-4.537-3.7-4.541-3.4-4.827-3.12-5.107-2.56-5.108-2.27-5.108-1.7-5.392-1.42-5.678-0.85-5.674-0.57-5.677-0.28-5.959,0.28-5.963,0.57-5.959,0.85-5.673,1.42-5.678,1.7-5.393,2.27-5.392,2.56-4.823,3.12-5.108,3.4-4.826,3.7-4.541,3.97-4.257,4.82-4.256,4.83-4.256,5.39-3.975,5.67-3.972,6.25-3.69,11.06-5.677,11.36-5.393,12.2-4.538,12.2-3.409,12.78-2.834,13.33-1.703,13.63-1.421,14.19-0.285,13.9,0.285,13.91,1.421,13.34,1.703,13.05,2.834,12.49,3.409,11.92,4.538,11.63,5.393,11.36,5.677,6.24,3.69,5.39,3.972,5.4,3.975,4.82,4.256,4.26,4.256,4.25,4.257,3.69,4.541,3.69,4.826,2.56,5.108,2.55,4.823,2.27,5.392,1.71,5.393,1.41,5.678,0.86,5.673,0.56,5.959,0.29,5.963z" stroke="#91a6b0" stroke-linecap="butt" stroke-miterlimit="199.131" stroke-dasharray="none" stroke-width="7.37646" fill="none"/></g><g id="g3311" transform="scale(0.999648,1.00035)"><path id="path3313" stroke-linejoin="miter" d="m1889.5,135.37-100.75,0,0,23.554,13.34,20.15,0,152.68-0.57,3.405-0.57,3.405-0.85,3.124-1.13,3.12-1.42,2.839-1.7,2.839-1.71,2.553-2.27,2.554-2.55,2.554-2.84,2.554-2.55,2.554-3.12,2.272-3.41,1.988-7.95,4.256-6.53,2.839-6.81,2.554-7.09,1.983-7.38,1.988-7.66,1.421-7.95,0.852-7.66,0.566-8.51,0.285-7.67-0.285-7.66-0.851-7.1-1.137-7.09-1.987-6.81-2.269-6.81-3.12-6.53-3.124-6.24-3.971-6.25-4.827-2.84-2.268-2.55-2.558-2.55-2.835-1.99-2.554-2.27-2.557-1.7-2.835-1.42-2.839-1.7-3.124-1.14-3.12-0.85-3.12-0.85-3.124-0.57-3.12-0.28-3.409,0-146.16,11.91-20.15,0-23.554-99.89,0,0,23.554,12.49,20.15,0,193.27-12.49,20.15,0,22.706,87.98,0,0-23.558,11.06,6.244,11.35,5.678,12.21,4.822,13.05,3.976,13.34,2.838,14.19,1.984,14.48,1.136,15.6,0.567,13.06-0.282,13.05-1.136,12.21-1.417,12.2-2.558,11.92-3.12,11.36-3.69,11.06-4.542,10.5-5.392,11.92-6.525,5.11-3.69,4.82-3.972,4.83-3.975,3.97-3.971,3.69-3.975,3.12-4.542,2.84-4.541,2.84-4.541,1.99-4.823,1.7-4.826,1.42-5.108,1.13-5.392,0.29-5.393,0.28-5.393,0-147.01,11.92-20.15,0-23.554z" stroke="#91a6b0" stroke-linecap="butt" stroke-miterlimit="199.131" stroke-dasharray="none" stroke-width="7.37646" fill="none"/></g><g id="g3315" transform="scale(0.999648,1.00035)"><path id="path3317" stroke-linejoin="miter" d="m2278.6,135.37-100.46,0,0,23.554,13.33,20.15,0,152.68-0.56,3.405-0.57,3.405-1.14,3.124-0.85,3.12-1.42,2.839-1.7,2.839-1.99,2.553-1.98,2.554-2.56,2.554-2.83,2.554-2.85,2.554-3.11,2.272-3.41,1.988-7.66,4.256-6.53,2.839-7.1,2.554-7.09,1.983-7.09,1.988-7.95,1.421-7.67,0.852-7.66,0.566-8.51,0.285-7.95-0.285-7.37-0.851-7.1-1.137-7.1-1.987-7.09-2.269-6.81-3.12-6.53-3.124-6.24-3.971-6.25-4.827-2.84-2.268-2.27-2.558-2.55-2.835-2.27-2.554-2.27-2.557-1.42-2.835-1.7-2.839-1.42-3.124-1.14-3.12-1.13-3.12-0.57-3.124-0.57-3.12-0.28-3.409,0-146.16,11.92-20.15,0-23.554-99.9,0,0,23.554,12.49,20.15,0,193.27-12.49,20.15,0,22.706,87.98,0,0-23.558,10.78,6.244,11.64,5.678,12.2,4.822,13.06,3.976,13.34,2.838,13.9,1.984,14.76,1.136,15.61,0.567,13.05-0.282,12.77-1.136,12.49-1.417,12.21-2.558,11.92-3.12,11.06-3.69,11.35-4.542,10.51-5.392,11.92-6.525,4.82-3.69,5.11-3.972,4.54-3.975,4.25-3.971,3.7-3.975,3.12-4.542,2.84-4.541,2.83-4.541,1.71-4.823,1.98-4.826,1.14-5.108,1.42-5.392,0.28-5.393,0.28-5.393,0-147.01,11.64-20.15,0-23.554z" stroke="#91a6b0" stroke-linecap="butt" stroke-miterlimit="199.131" stroke-dasharray="none" stroke-width="7.37646" fill="none"/></g><g id="g3319" transform="scale(0.999648,1.00035)"><path id="path3321" stroke-linejoin="miter" d="m2724.2,276.14-338.85,0,0-0.566,0.28-8.798,1.42-8.516,1.7-8.228,2.56-7.946,3.4-7.381,3.98-7.095,4.82-7.095,5.68-6.244,5.96-6.244,7.09-5.958,7.67-5.393,8.51-5.108,9.08-4.826,9.93-4.538,10.5-4.26,11.64-3.686,8.23-2.558,8.23-1.983,7.95-1.988,7.94-1.417,7.38-1.422,7.67-0.851,6.81-0.285,6.81-0.281,6.81,0.281,7.38,0.57,7.66,0.851,7.38,1.137,7.95,1.417,7.94,1.988,8.51,2.268,8.23,2.554,8.52,2.554,7.95,2.839,7.37,3.124,7.1,3.12,6.53,3.405,6.24,3.405,5.68,3.405,5.39,3.975,43.99-30.649-15.61-9.368-17.03-7.947-17.88-6.525-19.3-5.392-21-4.542-21.85-2.838-23.27-1.988-24.69-0.566-21.86,0.566-20.71,1.421-20.15,2.554-19.02,3.69-17.87,4.542-17.6,5.673-16.18,6.244-15.61,7.662-9.08,5.111-8.23,5.393-7.94,5.107-7.1,5.959-6.53,6.244-5.96,6.244-5.67,6.525-4.83,7.095-4.54,7.38-3.69,7.381-3.12,7.661-2.56,7.946-1.98,8.513-1.42,8.798-0.85,8.516-0.29,9.364,0.29,8.513,0.57,7.946,1.13,7.947,1.99,7.38,2.55,7.661,2.84,7.38,3.41,6.81,3.69,6.814,4.25,6.811,5.11,6.525,5.68,5.962,5.96,5.959,6.53,5.959,6.81,5.393,7.37,5.392,8.23,5.393,14.76,8.798,15.61,7.38,16.18,6.24,17.03,5.392,17.31,3.976,17.87,2.838,18.74,1.703,19.01,0.566,19.02-0.566,18.16-1.703,17.88-2.838,17.59-3.976,16.47-5.392,16.45-6.24,15.62-7.38,15.32-8.798,15.61-10.785,7.09-5.393,6.53-5.959,5.96-6.244,5.68-5.959,4.82-6.529,4.26-6.81,4.25-6.81,3.41-7.095,2.84-7.095,2.55-7.665,1.42-7.377,1.42-7.946,0.85-7.946,0.28-8.232z" stroke="#91a6b0" stroke-linecap="butt" stroke-miterlimit="199.131" stroke-dasharray="none" stroke-width="7.37646" fill="none"/></g><g id="g3323" transform="scale(0.999648,1.00035)"><path id="path3325" stroke-linejoin="miter" d="m2652.4,306.5-2.56,6.244-3.12,5.959-3.41,6.244-4.26,5.393-4.54,5.673-5.39,5.678-5.96,5.393-6.52,4.822-9.94,7.095-11.07,6.244-10.78,5.108-11.92,3.975-12.48,3.405-12.78,2.269-13.05,1.421-13.91,0.566-14.19-0.566-13.34-1.421-13.05-2.554-12.21-3.405-11.91-4.256-11.07-5.393-10.79-6.529-9.93-7.376-5.96-4.827-5.39-5.392-4.83-5.389-4.54-5.678-3.69-5.392-3.97-5.674-2.56-5.963-2.55-5.674,261.67,0z" stroke="#91a6b0" stroke-linecap="butt" stroke-miterlimit="199.131" stroke-dasharray="none" stroke-width="7.37646" fill="none"/></g><g id="g3327" transform="scale(0.999648,1.00035)"><path id="path3329" stroke-linejoin="miter" d="m3173.4,173.68-17.6-8.798-19.01-7.661-19.58-6.529-20.72-5.108-21.57-4.256-22.13-3.124-22.99-1.702-23.56-0.567-21,0.567-20.15,1.421-20.43,2.554-19.3,3.405-19.3,4.541-18.73,5.108-18.45,6.529-17.87,7.376-20.72,10.219-9.37,5.393-8.23,5.673-8.23,6.244-7.09,5.678-6.53,6.525-5.68,6.814-5.39,6.81-4.26,7.095-3.68,7.377-3.13,7.38-2.55,7.946-1.99,8.232-0.85,7.946-0.28,8.798,0.28,8.512,0.85,8.232,1.99,8.228,2.55,7.38,3.13,7.661,3.68,7.665,4.26,6.81,5.39,6.811,5.68,6.814,6.53,6.525,7.09,5.958,8.23,5.963,8.23,5.674,9.37,5.393,20.72,10.219,17.87,7.376,18.45,6.244,18.73,5.678,19.3,4.541,19.3,3.405,20.43,2.554,20.15,1.417,21,0.57,23.27-0.57,22.43-1.702,21.85-3.12,21.57-4.261,20.43-5.107,19.58-6.525,19.3-7.665,18.16-8.798-51.08-28.096-12.2,6.529-13.06,5.959-13.34,5.108-14.18,3.975-14.76,3.12-15.33,2.273-16.18,1.132-16.46,0.57-14.47-0.285-13.62-1.417-13.91-1.988-13.05-2.273-13.06-3.686-12.77-4.26-12.49-5.108-12.2-5.959-13.34-7.38-5.96-4.256-5.11-4.256-5.39-4.257-4.26-4.256-4.54-4.826-3.69-4.823-3.12-4.826-3.12-5.108-2.27-5.108-1.99-5.392-1.7-5.678-0.85-5.674-0.57-5.677-0.28-5.959,0.28-6.244,0.57-5.959,0.85-5.678,1.7-5.677,1.71-5.389,2.55-5.393,2.84-4.826,3.4-5.108,3.41-4.826,4.54-4.823,4.26-4.256,5.1-4.26,5.4-4.256,5.96-3.972,6.24-3.69,6.81-3.69,11.92-5.392,12.21-4.823,12.48-3.975,13.06-3.405,13.34-2.554,14.19-1.988,14.18-0.851,14.76-0.281,15.9,0.281,15.04,1.422,15.32,2.553,14.76,3.405,13.91,4.257,14.19,5.392,13.33,5.959,13.06,7.38,51.65-31.219z" stroke="#91a6b0" stroke-linecap="butt" stroke-miterlimit="199.131" stroke-dasharray="none" stroke-width="7.37646" fill="none"/></g><g id="g3331" transform="scale(0.999648,1.00035)"><path id="path3333" stroke-linejoin="miter" d="m3389.1,392.21-89.4,0,0-213.42,12.49-20.149,0-23.554-99.61,0,0,23.554,11.06,20.149,0,282.95-9.93,20.434,0,22.136,98.48,0,0-22.136-12.49-20.434,0-46.828,89.4,0,0-22.703z" stroke="#91a6b0" stroke-linecap="butt" stroke-miterlimit="199.131" stroke-dasharray="none" stroke-width="7.37646" fill="none"/></g><path id="path3335" fill-rule="evenodd" fill="#bf9e48" d="m4195.6,462.47-0.57-18.739-1.42-17.882-2.83-17.887-3.69-17.035-5.11-17.035-5.67-16.18-7.1-16.184-8.22-15.613-9.08-14.762-10.21-14.765-11.63-14.477-12.2-13.629-13.62-13.625-14.47-12.777-32.62-24.699-31.5-20.157-33.47-17.32-34.62-14.477-36.02-12.207-37.74-9.371-39.15-6.812-40.57-3.973-41.7-1.422-254.76,0,0,39.746,19.01,26.122,0,531.46-19.01,26.406,0,37.187,254.76,0,41.42-0.851,40.57-3.973,38.87-6.812,37.73-9.372,36.03-12.207,34.89-14.48,33.48-17.602,31.78-20.156,32.62-24.699,14.47-12.773,13.62-13.344,12.2-13.91,11.63-14.196,10.21-14.765,9.08-14.762,8.22-15.613,7.1-16.184,5.67-16.184,5.11-16.75,3.69-17.316,2.83-17.316,1.42-18.172,0.57-18.453zm-89.08,0-0.57,16.465-1.7,16.183-2.27,15.613-3.41,15.332-4.54,14.762-5.39,14.766-6.52,14.195-7.38,13.625-8.51,13.629-9.07,12.773-10.22,12.778-11.35,12.207-12.2,11.64-13.33,11.356-29.51,21.574-28.65,17.602-30.35,15.332-31.5,13.058-32.34,10.789-34.04,8.516-34.9,5.68-36.31,3.691-37.16,1.137-98.16,0,0-583.98,98.16,0,36.87,1.137,35.75,3.692,34.9,5.675,33.19,8.52,32.63,10.219,31.49,13.058,30.35,15.047,29.22,17.887,29.79,21.574,13.34,11.359,12.48,11.637,11.06,12.211,10.22,12.488,9.36,13.063,8.51,13.34,7.66,13.629,6.52,14.195,5.39,14.195,4.54,15.047,3.41,15.328,2.27,15.617,1.7,15.899,0.57,16.465"/><path id="path3337" fill-rule="evenodd" fill="#91a6b0" d="m4622,151.32-88.8,0-2.83,37.473-0.86-1.137-0.56-1.133-1.14-1.136-0.85-1.137-2.27-2.27-3.12-2.554-4.82-3.692-5.39-3.406-10.78-5.961-11.92-5.394-12.48-4.262-13.33-2.836-14.47-2.555-15.32-1.422-15.89-0.281-20.71,0.281-20.14,1.704-19.58,2.273-19.29,3.691-19.01,4.825-17.87,5.394-18.16,6.531-17.31,7.95-19.57,9.933-9.08,5.114-8.22,5.96-7.66,5.676-6.81,5.965-6.53,6.242-5.67,6.532-5.39,6.812-4.54,6.816-3.97,7.379-3.41,7.098-2.55,7.668-2.27,7.664-1.7,8.234-0.86,8.231-0.28,7.949,0.28,7.949,1.14,7.95,1.42,7.382,2.27,7.379,3.12,7.098,3.4,7.098,4.26,6.531,4.82,6.531,5.68,6.246,5.67,5.961,7.09,5.676,7.38,5.965,7.94,5.109,18.16,10.219,16.17,7.949,17.02,6.531,17.31,5.395,18.15,4.824,18.73,3.406,19.29,2.559,19.86,1.703,20.71,0.281,15.32-0.281,15.32-0.852,15.04-1.421,15.03-2.27,14.47-2.555,14.47-3.691,13.9-3.977,13.9-4.543-1.13,17.606,88.51,0,1.7-22.145-9.93-19.308,14.19-188.51,13.05-19.305,1.7-22.711zm-93.62,64.446-12.2,163.24-9.93,3.406-10.21,3.121-10.5,2.555-11.35,2.273-11.34,1.703-11.92,0.852-11.92,0.852-12.48,0.285-15.6-0.571-15.04-0.851-15.04-2.27-14.46-2.554-14.19-3.977-13.9-4.258-13.62-4.824-13.33-5.965-14.47-7.949-6.24-4.258-6.24-4.258-5.11-4.543-5.11-4.824-4.25-4.543-3.97-5.113-3.41-5.109-2.84-5.395-2.27-5.395-1.98-5.675-1.13-5.961-1.14-5.965,0-12.207,0.85-6.246,1.13-6.246,1.99-6.246,1.99-5.676,2.83-5.68,3.12-5.676,3.41-5.109,4.25-5.395,4.83-5.113,4.82-4.539,5.96-4.828,5.96-4.543,6.52-4.258,7.09-4.258,15.61-7.949,13.9-5.68,14.19-5.109,14.46-3.973,14.75-3.41,15.04-2.836,15.32-1.988,15.32-0.852,16.17-0.566,5.96,0.281,6.24,0.285,5.96,0.567,5.96,1.137,5.95,0.851,5.68,1.703,5.39,1.703,5.39,1.989,5.11,2.269,5.1,2.555,10.22,5.965,9.36,7.097,9.36,7.95zm198.02,269.14,0.29-1.422-0.29-1.984,0.29-1.422-0.57-1.418-0.28-1.422-0.29-1.418-0.57-1.418-0.56-1.421-0.57-1.418-0.85-1.137-1.14-1.418-0.85-0.852-0.85-1.422-1.13-0.851-2.84-2.27-3.12-1.988-2.84-1.703-3.12-1.418-3.4-1.137-3.41-0.851-3.69-0.852-3.97,0-3.97-0.285-3.69,0.285-3.97,0-3.69,0.852-3.68,0.851-3.41,1.137-3.41,1.418-3.4,1.703-3.41,1.988-2.83,2.27-1.42,0.851-1.14,1.422-0.84,0.852-1.43,1.418-0.84,1.137-1.14,1.418-0.57,1.421-0.85,1.418-0.56,1.418-0.29,1.422-0.85,1.418,0,1.422-0.57,1.984,0,1.422-0.28,1.418,0.28,1.703,0,1.422,0.29,1.418,0.28,1.703,0.57,1.418,0.28,1.137,0.57,1.422,0.85,1.418,0.57,1.137,1.13,1.132,0.85,1.137,1.14,1.137,1.13,1.133,1.14,1.136,1.42,0.852,3.11,1.988,3.13,1.703,3.12,1.137,3.4,1.133,3.41,0.855,3.68,0.567,3.69,0.566,7.95,0,3.68-0.566,3.98-0.567,3.4-0.855,3.69-1.133,3.12-1.137,3.4-1.703,3.41-1.988,1.42-0.852,1.7-1.136,1.13-1.133,1.14-1.137,1.13-1.137,1.14-1.132,1.13-1.137,0.85-1.418,0.57-1.422,0.85-1.137,0.57-1.418,0.57-1.703,0.57-1.418,0.28-1.422,0.28-1.703,0-1.418zm36.03-333.58-101.28,0-1.7,22.711,11.35,19.305-14.19,188.23-14.47,19.589-1.7,22.145,101.57,0,1.7-22.145-9.93-19.589,14.18-188.23,12.77-19.305,1.7-22.711zm142.14,0-101.29,0-1.7,22.711,11.63,19.305-26.95,355.73-14.75,12.777-2.55,21.008,97.59,52.804,2.27-21.578-8.79-25.551,30.07-395.19,12.76-19.305,1.71-22.711zm375.61,249.83-10.77-19.308,15.88-207.53-1.42,0,1.14-14.195,0.56-11.074-0.85-10.789-1.13-10.219-2.56-9.937-2.83-9.653-4.26-8.8006-5.1-8.8007-5.96-8.2344-6.53-7.9492-7.94-7.3789-8.51-6.8125-9.65-6.8164-10.21-6.2461-11.35-5.961-12.2-5.1094-13.05-5.1093-19.57-6.2461-21-5.6797-22.41-4.2578-23.83-3.9766-25.81-2.8359-26.96-1.9883-28.37-1.418-30.35-0.57032-1.14,17.602,23.55,0.8515,25.53,1.7032,26.95,3.6914,28.94,4.2578,16.74,3.4062,15.32,3.4102,14.18,3.9726,12.2,4.2579,10.5,4.5429,4.82,2.2735,4.26,2.5547,3.97,2.5546,3.69,2.8399,3.4,2.8359,2.55,2.5547,6.81,8.5195,6.53,8.8008,4.82,9.086,4.26,9.6523,2.83,9.652,1.99,10.219,1.14,10.789,0,10.789-1.42,28.391-10.78-5.965-11.07-4.824-11.63-4.258-12.48-3.977-13.05-2.554-13.62-2.27-14.18-0.851-14.76-0.571-13.62,0.285-13.33,1.137-13.05,1.418-12.48,2.27-12.48,2.84-11.64,3.691-11.63,4.258-11.06,5.109-6.24,3.125-6.25,3.406-5.67,3.407-5.11,3.406-5.1,3.976-4.54,3.973-4.26,3.977-3.68,3.972-3.12,4.543-3.13,4.543-2.55,4.824-2.27,4.543-1.7,5.114-1.42,5.39-0.85,5.114-0.85,5.675-10.78,143.65-14.19,19.308-1.7,22.145,101.28,0,1.7-22.145-9.93-19.308,11.07-145.07,0.28-3.125,0.85-3.687,0.85-2.84,1.14-3.406,1.42-2.84,1.42-2.84,1.7-3.121,2.27-2.559,2.27-2.554,2.83-2.555,2.84-2.555,3.12-2.269,3.41-2.274,3.4-1.984,3.69-1.988,4.26-1.988,7.09-2.84,7.09-2.555,7.37-1.988,7.66-1.703,7.66-1.133,8.23-1.137,8.23-0.566,15.32,0,6.53,1.132,7.09,1.137,6.52,1.988,6.81,2.555,6.52,3.121,6.81,3.692,6.82,4.257,6.52,4.543,5.39,4.829,1.98,2.554,2.27,2.27,1.71,2.273,1.7,2.555,1.13,2.84,1.42,2.554,0.57,2.555,0.57,2.555,0.56,2.554,0,5.68-0.28,2.555-9.36,141.38-14.75,19.308-1.7,22.145,101.84,0,1.7-22.145"/><g id="g3339" transform="scale(0.999648,1.00035)"><path id="path3341" stroke-linejoin="miter" d="m4623.7,151.27-88.83,0-2.84,37.459-0.85-1.136-0.57-1.132-1.13-1.137-0.85-1.136-2.27-2.269-3.13-2.553-4.82-3.691-5.39-3.405-10.79-5.958-11.91-5.393-12.49-4.26-13.34-2.835-14.47-2.554-15.33-1.421-15.89-0.282-20.72,0.282-20.15,1.702-19.58,2.273-19.3,3.69-19.02,4.822-17.87,5.393-18.17,6.529-17.31,7.946-19.58,10.216-9.08,5.107-8.23,5.959-7.67,5.678-6.81,5.959-6.53,6.243-5.67,6.529-5.39,6.81-4.54,6.811-3.98,7.38-3.4,7.095-2.56,7.661-2.27,7.666-1.7,8.227-0.85,8.232-0.28,7.946,0.28,7.946,1.13,7.947,1.42,7.38,2.27,7.376,3.12,7.096,3.41,7.095,4.26,6.529,4.82,6.525,5.68,6.244,5.67,5.958,7.1,5.678,7.38,5.959,7.94,5.111,18.17,10.216,16.17,7.946,17.03,6.529,17.31,5.389,18.17,4.826,18.73,3.405,19.3,2.554,19.86,1.702,20.72,0.285,15.33-0.285,15.32-0.851,15.04-1.417,15.04-2.273,14.48-2.554,14.47-3.69,13.91-3.971,13.9-4.541-1.13,17.595,88.54,0,1.7-22.137-9.93-19.298,14.19-188.44,13.06-19.583,1.7-22.703z" stroke="#91a6b0" stroke-linecap="butt" stroke-miterlimit="199.131" stroke-dasharray="none" stroke-width="7.37646" fill="none"/></g><g id="g3343" transform="scale(0.999648,1.00035)"><path id="path3345" stroke-linejoin="miter" d="m4530,215.97-12.2,163.18-9.93,3.409-10.22,3.12-10.5,2.554-11.35,2.269-11.35,1.706-11.92,0.852-11.92,0.851-12.49,0.281-15.61-0.566-15.04-0.851-15.04-2.273-14.48-2.554-14.18-3.971-13.91-4.256-13.62-4.827-13.34-5.959-14.47-7.946-6.25-4.256-6.24-4.257-5.11-4.541-5.11-4.827-4.26-4.541-3.97-5.107-3.4-5.108-2.84-5.393-2.27-5.392-1.99-5.674-1.13-5.963-1.14-5.959,0-12.202,0.85-6.244,1.13-6.244,1.99-6.244,1.99-5.674,2.84-5.678,3.12-5.677,3.41-5.108,4.25-5.392,4.83-5.108,4.82-4.541,5.96-4.823,5.96-4.541,6.53-4.257,7.09-4.256,15.61-7.946,13.91-5.678,14.19-5.108,14.47-4.256,14.76-3.409,15.04-2.835,15.32-1.987,15.33-0.852,16.18-0.566,5.96,0.281,6.24,0.285,5.96,0.567,5.96,1.136,5.96,0.851,5.68,1.703,5.39,1.702,5.39,1.988,5.11,2.554,5.11,2.553,10.22,5.959,9.36,7.095,9.36,7.947z" stroke="#91a6b0" stroke-linecap="butt" stroke-miterlimit="199.131" stroke-dasharray="none" stroke-width="7.37646" fill="none"/></g><g id="g3347" transform="scale(0.999648,1.00035)"><path id="path3349" stroke-linejoin="miter" d="m4728.1,485.01,0.28-1.418-0.28-1.987,0.28-1.418-0.56-1.421-0.29-1.418-0.28-1.417-0.57-1.422-0.57-1.417-0.56-1.417-0.86-1.137-1.13-1.421-0.86-0.851-0.85-1.418-1.13-0.851-2.84-2.269-3.12-1.987-2.84-1.703-3.12-1.421-3.41-1.133-3.4-0.851-3.69-0.851-3.97,0-3.98-0.285-3.69,0.285-3.97,0-3.69,0.851-3.69,0.851-3.4,1.133-3.41,1.421-3.41,1.703-3.4,1.987-2.84,2.269-1.42,0.851-1.14,1.418-0.84,0.851-1.43,1.421-0.84,1.137-1.14,1.417-0.57,1.417-0.85,1.422-0.57,1.417-0.28,1.418-0.85,1.421,0,1.418-0.57,1.987,0,1.418-0.28,1.421,0.28,1.703,0,1.417,0.29,1.421,0.28,1.418,0.56,1.417,0.29,1.137,0.57,1.421,0.85,1.418,0.56,1.136,1.14,1.132,0.85,1.137,1.14,1.136,1.13,1.132,1.14,1.137,1.42,0.851,3.12,1.987,3.12,1.703,3.12,1.136,3.41,1.133,3.4,0.855,3.69,0.566,3.69,0.566,7.95,0,3.69-0.566,3.97-0.566,3.41-0.855,3.69-1.133,3.12-1.136,3.4-1.703,3.41-1.987,1.42-0.851,1.7-1.137,1.14-1.132,1.13-1.136,1.14-1.137,1.13-1.132,1.14-1.136,0.85-1.418,0.57-1.421,0.85-1.137,0.56-1.417,0.57-1.418,0.57-1.421,0.29-1.417,0.28-1.703,0-1.421z" stroke="#91a6b0" stroke-linecap="butt" stroke-miterlimit="199.131" stroke-dasharray="none" stroke-width="7.37646" fill="none"/></g><g id="g3351" transform="scale(0.999648,1.00035)"><path id="path3353" stroke-linejoin="miter" d="m4764.2,151.27-101.32,0-1.7,22.703,11.35,19.583-14.19,188.16-14.47,19.583-1.7,22.137,101.6,0,1.7-22.137-9.93-19.583,14.19-188.16,12.77-19.583,1.7-22.703z" stroke="#91a6b0" stroke-linecap="butt" stroke-miterlimit="199.131" stroke-dasharray="none" stroke-width="7.37646" fill="none"/></g><g id="g3355" transform="scale(0.999648,1.00035)"><path id="path3357" stroke-linejoin="miter" d="m4906.3,151.27-101.31,0-1.71,22.703,11.64,19.583-26.96,355.32-14.76,12.773-2.55,21,97.63,52.786,2.27-21.57-8.8-25.542,30.08-394.76,12.77-19.583,1.7-22.703z" stroke="#91a6b0" stroke-linecap="butt" stroke-miterlimit="199.131" stroke-dasharray="none" stroke-width="7.37646" fill="none"/></g><g id="g3359" transform="scale(0.999648,1.00035)"><path id="path3361" stroke-linejoin="miter" d="m5281.8,401.29-10.78-19.298,15.89-207.74-1.42,0,1.13-14.19,0.58-11.071-0.86-10.785-1.13-10.215-2.56-9.934-2.84-9.649-4.25-8.7977-5.11-8.7976-5.96-8.2315-6.53-7.9464-7.94-7.3763-8.52-6.8101-9.65-6.8141-10.21-6.2438-11.35-5.9589-12.21-5.1076-13.05-5.1075-19.58-6.2439-21.01-5.6777-22.42-4.2563-23.84-3.9752-25.82-2.8349-26.96-1.9876-28.38-1.4175-30.37-0.57011-1.14,17.595,23.56,0.8512,25.54,1.7026,26.96,3.6901,28.95,4.2563,16.74,3.405,15.33,3.409,14.19,3.9712,12.2,4.2564,10.51,4.5413,4.82,2.2727,4.26,2.5537,3.97,2.5538,3.69,2.8389,3.4,2.8349,2.56,2.5538,6.81,8.5165,6.53,8.7977,4.82,9.0828,4.26,9.6484,2.84,9.649,1.98,10.216,1.14,10.785,0,10.785-1.42,28.381-10.79-5.963-11.06-4.823-11.64-4.256-12.49-3.975-13.05-2.554-13.62-2.269-14.19-0.851-14.76-0.57-13.62,0.285-13.34,1.136-13.06,1.418-12.48,2.269-12.49,2.839-11.64,3.69-11.63,4.256-11.07,5.108-6.25,3.123-6.24,3.405-5.67,3.406-5.11,3.405-5.11,3.975-4.54,3.971-4.26,4.256-3.69,3.975-3.12,4.542-3.12,4.541-2.56,4.823-2.27,4.541-1.7,5.108-1.42,5.392-0.85,5.108-0.85,5.678-10.79,143.6-14.18,19.298-1.71,22.137,101.32,0,1.7-22.137-9.93-19.298,11.07-145.02,0.28-3.12,0.85-3.69,0.85-2.839,1.14-3.405,1.42-2.839,1.42-2.835,1.7-3.123,2.27-2.554,2.27-2.554,2.84-2.554,2.84-2.554,3.12-2.272,3.4-2.269,3.41-1.988,3.69-1.987,4.25-1.984,7.1-3.124,7.09-2.554,7.38-1.987,7.67-1.703,7.66-1.132,8.23-1.136,8.23-0.567,15.33,0,6.52,1.133,7.1,1.136,6.52,1.988,6.81,2.554,6.53,3.405,6.81,3.69,6.82,4.256,6.52,4.541,5.39,4.823,1.99,2.554,2.27,2.272,1.7,2.269,1.71,2.554,1.13,2.839,1.42,2.553,0.57,2.554,0.57,2.558,0.57,2.554,0,5.674-0.29,2.553-9.37,141.33-14.75,19.298-1.7,22.137,101.88,0,1.7-22.137z" stroke="#91a6b0" stroke-linecap="butt" stroke-miterlimit="199.131" stroke-dasharray="none" stroke-width="7.37646" fill="none"/></g></g></g></svg>
