<?xml version="1.0" encoding="UTF-8" standalone="no"?>
<!-- Generator: IcoMoon.io -->
<svg id="svg2" xmlns:rdf="http://www.w3.org/1999/02/22-rdf-syntax-ns#" xmlns="http://www.w3.org/2000/svg" fill="#000000" version="1.1" xmlns:cc="http://creativecommons.org/ns#" xmlns:dc="http://purl.org/dc/elements/1.1/" viewBox="0 0 512 512">
 <metadata id="metadata73">
  <rdf:RDF>
   <cc:Work rdf:about="">
    <dc:format>image/svg+xml</dc:format>
    <dc:type rdf:resource="http://purl.org/dc/dcmitype/StillImage"/>
    <dc:title/>
   </cc:Work>
  </rdf:RDF>
 </metadata>
 <g id="svgGrid" stroke="#B35047" stroke-width="1" class="svgGrid">
  <line id="line5" y2="512" x1="32" x2="32"/>
  <line id="line7" y2="512" x1="64" x2="64"/>
  <line id="line9" y2="512" x1="96" x2="96"/>
  <line id="line11" y2="512" x1="128" x2="128"/>
  <line id="line13" y2="512" x1="160" x2="160"/>
  <line id="line15" y2="512" x1="192" x2="192"/>
  <line id="line17" y2="512" x1="224" x2="224"/>
  <line id="line19" y2="512" x1="256" x2="256"/>
  <line id="line21" y2="512" x1="288" x2="288"/>
  <line id="line23" y2="512" x1="320" x2="320"/>
  <line id="line25" y2="512" x1="352" x2="352"/>
  <line id="line27" y2="512" x1="384" x2="384"/>
  <line id="line29" y2="512" x1="416" x2="416"/>
  <line id="line31" y2="512" x1="448" x2="448"/>
  <line id="line33" y2="512" x1="480" x2="480"/>
  <line id="line35" y2="32" y1="32" x2="512"/>
  <line id="line37" y2="64" y1="64" x2="512"/>
  <line id="line39" y2="96" y1="96" x2="512"/>
  <line id="line41" y2="128" y1="128" x2="512"/>
  <line id="line43" y2="160" y1="160" x2="512"/>
  <line id="line45" y2="192" y1="192" x2="512"/>
  <line id="line47" y2="224" y1="224" x2="512"/>
  <line id="line49" y2="256" y1="256" x2="512"/>
  <line id="line51" y2="288" y1="288" x2="512"/>
  <line id="line53" y2="320" y1="320" x2="512"/>
  <line id="line55" y2="352" y1="352" x2="512"/>
  <line id="line57" y2="384" y1="384" x2="512"/>
  <line id="line59" y2="416" y1="416" x2="512"/>
  <line id="line61" y2="448" y1="448" x2="512"/>
  <line id="line63" y2="480" y1="480" x2="512"/>
  <rect id="rect65" height="512" width="512" y="0" x="0" fill="none"/>
 </g>
 <path id="path67" d="M256,0c-141.38,0-256,114.62-256,256s114.61,256,256,256c141.38,0,256-114.62,256-256s-114.62-256-256-256zm32,416h-64v-64h64v64zm96-192c0,35.29-28.71,64-64,64h-31.942c-0.02,0.017-0.041,0.038-0.058,0.058v31.94h-64v-32c0-35.29,28.71-64,64-64h31.942c0.02-0.017,0.041-0.038,0.058-0.057v-63.885c-0.017-0.02-0.037-0.041-0.058-0.058h-159.94v-64h160c35.29,0,64,28.71,64,64v64z"/>
</svg>
